GIL11_xslow1_ik
nRows=3
nColumns=375

# SIMM Motion File Header:
name GIL11_xslow1_ik
datacolumns 375
datarows 3
otherdata 1
range 0.62500000 0.64167000
endheader
time	pelvis_tx	pelvis_ty	pelvis_tz	pelvis_tilt	pelvis_list	pelvis_rotation	hip_flexion_r	hip_adduction_r	hip_rotation_r	knee_angle_r	ankle_angle_r	hip_flexion_l	hip_adduction_l	hip_rotation_l	knee_angle_l	ankle_angle_l	lumbar_extension	lumbar_bending	lumbar_rotation	subtalar_angle_r	mtp_angle_r	subtalar_angle_l	mtp_angle_l	asis_r_px	asis_r_py	asis_r_pz	asis_l_px	asis_l_py	asis_l_pz	midasis_px	midasis_py	midasis_pz	psis_r_px	psis_r_py	psis_r_pz	psis_l_px	psis_l_py	psis_l_pz	hip_r_px	hip_r_py	hip_r_pz	hip_l_px	hip_l_py	hip_l_pz	midhip_px	midhip_py	midhip_pz	epicondLat_r_px	epicondLat_r_py	epicondLat_r_pz	epicondMed_r_px	epicondMed_r_py	epicondMed_r_pz	thighwand_r_px	thighwand_r_py	thighwand_r_pz	upperleg1_r_px	upperleg1_r_py	upperleg1_r_pz	upperleg2_r_px	upperleg2_r_py	upperleg2_r_pz	malleolusLat_r_px	malleolusLat_r_py	malleolusLat_r_pz	malleolusMedv_r_px	malleolusMedv_r_py	malleolusMedv_r_pz	shankwand_r_px	shankwand_r_py	shankwand_r_pz	lowerleg1_r_px	lowerleg1_r_py	lowerleg1_r_pz	knee_r_px	knee_r_py	knee_r_pz	ankle_r_px	ankle_r_py	ankle_r_pz	toe_r_px	toe_r_py	toe_r_pz	epicondLat_l_px	epicondLat_l_py	epicondLat_l_pz	epicondMed_l_px	epicondMed_l_py	epicondMed_l_pz	thighwand_l_px	thighwand_l_py	thighwand_l_pz	upperleg1_l_px	upperleg1_l_py	upperleg1_l_pz	upperleg2_l_px	upperleg2_l_py	upperleg2_l_pz	malleolusLat_l_px	malleolusLat_l_py	malleolusLat_l_pz	malleolusMedv_l_px	malleolusMedv_l_py	malleolusMedv_l_pz	shankwand_l_px	shankwand_l_py	shankwand_l_pz	lowerleg1_l_px	lowerleg1_l_py	lowerleg1_l_pz	knee_l_px	knee_l_py	knee_l_pz	ankle_l_px	ankle_l_py	ankle_l_pz	toe_l_px	toe_l_py	toe_l_pz	subclavicle_r_px	subclavicle_r_py	subclavicle_r_pz	subclavicle_l_px	subclavicle_l_py	subclavicle_l_pz	neck_px	neck_py	neck_pz	sternalnotch_px	sternalnotch_py	sternalnotch_pz	xyphoidprocess_px	xyphoidprocess_py	xyphoidprocess_pz	midhip_tx	midhip_ty	midhip_tz	hip_r_tx	hip_r_ty	hip_r_tz	hip_l_tx	hip_l_ty	hip_l_tz	knee_r_tx	knee_r_ty	knee_r_tz	knee_l_tx	knee_l_ty	knee_l_tz	ankle_r_tx	ankle_r_ty	ankle_r_tz	ankle_l_tx	ankle_l_ty	ankle_l_tz	midasis_tx	midasis_ty	midasis_tz	asis_r_tx	asis_r_ty	asis_r_tz	asis_l_tx	asis_l_ty	asis_l_tz	psis_r_tx	psis_r_ty	psis_r_tz	psis_l_tx	psis_l_ty	psis_l_tz	epicondLat_r_tx	epicondLat_r_ty	epicondLat_r_tz	epicondLat_l_tx	epicondLat_l_ty	epicondLat_l_tz	epicondMed_r_tx	epicondMed_r_ty	epicondMed_r_tz	epicondMed_l_tx	epicondMed_l_ty	epicondMed_l_tz	malleolusLat_r_tx	malleolusLat_r_ty	malleolusLat_r_tz	malleolusLat_l_tx	malleolusLat_l_ty	malleolusLat_l_tz	malleolusMedv_r_tx	malleolusMedv_r_ty	malleolusMedv_r_tz	malleolusMedv_l_tx	malleolusMedv_l_ty	malleolusMedv_l_tz	neck_tx	neck_ty	neck_tz	subclavicle_r_tx	subclavicle_r_ty	subclavicle_r_tz	subclavicle_l_tx	subclavicle_l_ty	subclavicle_l_tz	sternalnotch_tx	sternalnotch_ty	sternalnotch_tz	xyphoidprocess_tx	xyphoidprocess_ty	xyphoidprocess_tz	thighwand_r_tx	thighwand_r_ty	thighwand_r_tz	thighwand_l_tx	thighwand_l_ty	thighwand_l_tz	upperleg1_r_tx	upperleg1_r_ty	upperleg1_r_tz	upperleg1_l_tx	upperleg1_l_ty	upperleg1_l_tz	upperleg2_r_tx	upperleg2_r_ty	upperleg2_r_tz	upperleg2_l_tx	upperleg2_l_ty	upperleg2_l_tz	shankwand_r_tx	shankwand_r_ty	shankwand_r_tz	shankwand_l_tx	shankwand_l_ty	shankwand_l_tz	lowerleg1_r_tx	lowerleg1_r_ty	lowerleg1_r_tz	lowerleg1_l_tx	lowerleg1_l_ty	lowerleg1_l_tz	toe_r_tx	toe_r_ty	toe_r_tz	toe_l_tx	toe_l_ty	toe_l_tz	ground_force_vx	ground_force_vy	ground_force_vz	ground_force_px	ground_force_py	ground_force_pz	ground_force_vx	ground_force_vy	ground_force_vz	ground_force_px	ground_force_py	ground_force_pz	ground_torque_x	ground_torque_y	ground_torque_z	ground_torque_x	ground_torque_y	ground_torque_z	ground_marker_px	ground_marker_py	ground_marker_pz	ground_marker_px	ground_marker_py	ground_marker_pz	ground_marker_px	ground_marker_py	ground_marker_pz	ground_marker_px	ground_marker_py	ground_marker_pz	ground_marker_px	ground_marker_py	ground_marker_pz	ground_marker_px	ground_marker_py	ground_marker_pz	ground_marker_px	ground_marker_py	ground_marker_pz	ground_marker_px	ground_marker_py	ground_marker_pz	ground_marker_px	ground_marker_py	ground_marker_pz	ground_marker_px	ground_marker_py	ground_marker_pz	ground_marker_px	ground_marker_py	ground_marker_pz	ground_marker_px	ground_marker_py	ground_marker_pz	ground_marker_px	ground_marker_py	ground_marker_pz	ground_marker_px	ground_marker_py	ground_marker_pz	ground_marker_px	ground_marker_py	ground_marker_pz	ground_marker_px	ground_marker_py	ground_marker_pz	ground_marker_px	ground_marker_py	ground_marker_pz	ground_marker_px	ground_marker_py	ground_marker_pz	ground_marker_px	ground_marker_py	ground_marker_pz	ground_marker_px	ground_marker_py	ground_marker_pz	ground_marker_px	ground_marker_py	ground_marker_pz	ground_marker_px	ground_marker_py	ground_marker_pz	ground_marker_px	ground_marker_py	ground_marker_pz	ground_marker_px	ground_marker_py	ground_marker_pz	ground_marker_px	ground_marker_py	ground_marker_pz	ground_marker_px	ground_marker_py	ground_marker_pz	ground_marker_px	ground_marker_py	ground_marker_pz	ground_marker_px	ground_marker_py	ground_marker_pz	ground_marker_px	ground_marker_py	ground_marker_pz	ground_marker_px	ground_marker_py	ground_marker_pz	ground_marker_px	ground_marker_py	ground_marker_pz	ground_marker_px	ground_marker_py	ground_marker_pz	ground_marker_px	ground_marker_py	ground_marker_pz	ground_marker_px	ground_marker_py	ground_marker_pz	ground_marker_px	ground_marker_py	ground_marker_pz	ground_marker_px	ground_marker_py	ground_marker_pz	ground_marker_px	ground_marker_py	ground_marker_pz
      0.62500000	      0.36561355	      0.86863933	     -0.32292293	     -3.53500839	      0.84197282	      2.25813427	     30.29839531	     -3.42317531	      4.64012123	    -28.26345962	      1.05115921	     -2.26628934	      5.48502590	     10.78036328	     -4.63097020	      9.06394770	     -3.87730966	     -0.16485351	     -2.15677513	      0.00000000	      0.00000000	      0.00000000	      0.00000000	      0.41790699	      0.85367536	     -0.21429510	      0.40723748	      0.86113096	     -0.44917169	      0.37844419	      0.86785417	     -0.32342976	      0.22543775	      0.93692546	     -0.28771907	      0.21962453	      0.93482397	     -0.34207605	      0.30002213	      0.81067620	     -0.24459549	      0.29412612	      0.81329797	     -0.39791643	      0.29707412	      0.81198708	     -0.32125596	      0.50096408	      0.47481191	     -0.17542117	      0.49180606	      0.46588208	     -0.29178914	      0.57422640	      0.66128745	     -0.26934083	      0.49542780	      0.68252049	     -0.21215226	      0.52264312	      0.59902951	     -0.20612248	      0.44829477	      0.08978775	     -0.15696394	      0.47664003	      0.08693573	     -0.22676857	      0.44397862	      0.17322891	     -0.09661670	      0.44857436	      0.17846922	     -0.14036375	      0.47217031	      0.47158941	     -0.23431644	      0.46356822	      0.09969420	     -0.20643196	      0.56124024	      0.05783946	     -0.14328434	      0.29355613	      0.41177676	     -0.43037740	      0.27648179	      0.43288621	     -0.30948767	      0.35026980	      0.53092212	     -0.51924048	      0.28795530	      0.59227644	     -0.47435722	      0.28456694	      0.50665112	     -0.45341440	      0.17674994	      0.05460911	     -0.39115979	      0.18909824	      0.06658880	     -0.32261238	      0.29941208	      0.15931526	     -0.33833278	      0.25964516	      0.16477272	     -0.35148639	      0.25377335	      0.43871386	     -0.36731339	      0.18805786	      0.07244703	     -0.34108988	      0.29332897	      0.02418432	     -0.36727479	      0.38052630	      1.32045461	     -0.26226805	      0.38248141	      1.31723654	     -0.36810314	      0.25244123	      1.36286277	     -0.31444361	      0.37844012	      1.31513873	     -0.31459414	      0.42765668	      1.25192574	     -0.31559667	      0.30558200	      0.82414100	     -0.31817100	      0.29291000	      0.80052600	     -0.24280000	      0.28301500	      0.80287700	     -0.39458700	      0.46975700	      0.45827900	     -0.22628600	      0.24890600	      0.42849700	     -0.36650200	      0.46176700	      0.08702300	     -0.22495400	      0.18488300	      0.06874600	     -0.33109400	      0.37690900	      0.87741600	     -0.32027200	      0.38072500	      0.87539800	     -0.20200400	      0.37309200	      0.87943300	     -0.43854000	      0.18176900	      0.93219900	     -0.27650700	      0.17691700	      0.93009700	     -0.33198100	      0.47403900	      0.46327200	     -0.16866100	      0.25741800	      0.42343500	     -0.42365000	      0.46746900	      0.45695500	     -0.28552300	      0.27125000	      0.44950100	     -0.29698000	      0.44841200	      0.08744500	     -0.18725200	      0.17186000	      0.06734400	     -0.36888900	      0.47135300	      0.09468400	     -0.25873400	      0.19572300	      0.07695800	     -0.30649500	      0.25697900	      1.37738500	     -0.31421900	      0.37870800	      1.31062000	     -0.26283700	      0.37976500	      1.30683000	     -0.36817100	      0.37526200	      1.30603200	     -0.31479600	      0.41244600	      1.23451900	     -0.31579300	      0.54659600	      0.65133600	     -0.25341700	      0.31006500	      0.54841600	     -0.51606200	      0.46950600	      0.66837500	     -0.19177600	      0.25210600	      0.60530500	     -0.46564300	      0.49912400	      0.58445400	     -0.19246400	      0.25641700	      0.51847100	     -0.44208100	      0.44348300	      0.16835500	     -0.11734800	      0.29818000	      0.17850200	     -0.33430200	      0.44493400	      0.17482400	     -0.16004000	      0.25677300	      0.18378800	     -0.34368200	      0.55654900	      0.06229300	     -0.19638300	      0.28945300	      0.04270200	     -0.36407800	      0.00000000	      0.00000000	      0.00000000	      0.60461761	      0.00000000	     -0.23213657	      5.02755735	    599.33815076	     21.65445228	      0.28649500	      0.00000000	     -0.35286591	      0.00000000	      0.00000000	      0.00000000	      0.00000000	     -1.96647034	      0.00000000	      0.30558172	      0.82414114	     -0.31817114	      0.29290950	      0.80052596	     -0.24279989	      0.28301451	      0.80287689	     -0.39458713	      0.46975735	      0.45827886	     -0.22628646	      0.24890618	      0.42849746	     -0.36650154	      0.46176726	      0.08702264	     -0.22495380	      0.18488289	      0.06874630	     -0.33109432	      0.37690887	      0.87741584	     -0.32027221	      0.38072541	      0.87539828	     -0.20200436	      0.37309232	      0.87943339	     -0.43854004	      0.18176946	      0.93219864	     -0.27650720	      0.17691703	      0.93009698	     -0.33198062	      0.47403926	      0.46327189	     -0.16866063	      0.25741822	      0.42343476	     -0.42364970	      0.46746850	      0.45695466	     -0.28552330	      0.27124980	      0.44950080	     -0.29697973	      0.44841185	      0.08744540	     -0.18725161	      0.17185953	      0.06734423	     -0.36888885	      0.47135326	      0.09468449	     -0.25873441	      0.19572271	      0.07695762	     -0.30649468	      0.25697869	      1.37738490	     -0.31421882	      0.37870809	      1.31061971	     -0.26283661	      0.37976456	      1.30683041	     -0.36817086	      0.37526247	      1.30603170	     -0.31479570	      0.41244566	      1.23451877	     -0.31579345	      0.54659599	      0.65133584	     -0.25341743	      0.31006542	      0.54841614	     -0.51606202	      0.46950635	      0.66837484	     -0.19177622	      0.25210550	      0.60530460	     -0.46564338	      0.49912423	      0.58445424	     -0.19246383	      0.25641677	      0.51847100	     -0.44208097	      0.44348291	      0.16835479	     -0.11734805	      0.29817951	      0.17850232	     -0.33430150	      0.44493386	      0.17482437	     -0.16003993	      0.25677302	      0.18378843	     -0.34368223	      0.55654949	      0.06229293	     -0.19638346	      0.28945345	      0.04270249	     -0.36407822
      0.63333000	      0.36988359	      0.86761120	     -0.32235884	     -3.62235640	      0.83002909	      2.28729175	     30.27908770	     -3.33797027	      4.85327190	    -25.98325955	      0.82954610	     -2.46494783	      5.48555199	     10.84066325	     -4.69154524	      9.32621990	     -3.85418805	     -0.20266978	     -2.46720939	      0.00000000	      0.00000000	      0.00000000	      0.00000000	      0.42221086	      0.85258702	     -0.21375562	      0.41143030	      0.86001748	     -0.44862793	      0.38271276	      0.86680648	     -0.32287221	      0.22982990	      0.93611611	     -0.28709406	      0.22398518	      0.93401388	     -0.34144763	      0.30424513	      0.80976142	     -0.24398702	      0.29827322	      0.81236517	     -0.39730533	      0.30125918	      0.81106330	     -0.32064618	      0.50482844	      0.47353428	     -0.17553836	      0.49512725	      0.46456061	     -0.29185894	      0.57803693	      0.65981328	     -0.26988902	      0.49953983	      0.68123384	     -0.21235680	      0.52661584	      0.59769202	     -0.20640464	      0.46634855	      0.08782969	     -0.15789740	      0.49425914	      0.08623558	     -0.22791691	      0.45935420	      0.17088409	     -0.09726829	      0.46342340	      0.17641325	     -0.14103192	      0.47529946	      0.47046933	     -0.23426979	      0.48086982	      0.09843834	     -0.20744627	      0.58038909	      0.05972122	     -0.14518743	      0.29575319	      0.41083779	     -0.42959674	      0.27872656	      0.43208195	     -0.30872388	      0.35309031	      0.52966638	     -0.51848389	      0.29105610	      0.59134400	     -0.47365549	      0.28723906	      0.50574520	     -0.45267803	      0.17679222	      0.05434352	     -0.39034515	      0.18917279	      0.06626882	     -0.32179408	      0.30004396	      0.15833446	     -0.33747769	      0.26031754	      0.16402420	     -0.35065526	      0.25608088	      0.43799094	     -0.36656107	      0.18817762	      0.07212797	     -0.34027378	      0.29336130	      0.02369978	     -0.36650446	      0.38507543	      1.31952848	     -0.26174542	      0.38753194	      1.31614751	     -0.36756497	      0.25728915	      1.36200215	     -0.31459597	      0.38323294	      1.31413552	     -0.31407277	      0.43238178	      1.25086548	     -0.31474468	      0.30917400	      0.82250100	     -0.31783800	      0.29710000	      0.79991200	     -0.24259000	      0.28715100	      0.80235300	     -0.39437200	      0.47332600	      0.45718400	     -0.22725300	      0.25117900	      0.42820200	     -0.36622900	      0.47949100	      0.08533700	     -0.22432300	      0.18500300	      0.06883500	     -0.33091900	      0.38119200	      0.87670600	     -0.32005700	      0.38505000	      0.87462600	     -0.20183000	      0.37733400	      0.87878700	     -0.43828400	      0.18646800	      0.93170300	     -0.27582000	      0.18145200	      0.92964700	     -0.33135500	      0.47787100	      0.46209900	     -0.16964100	      0.25969700	      0.42308500	     -0.42337100	      0.46994000	      0.45512000	     -0.28607300	      0.26653200	      0.44424300	     -0.30114100	      0.46622700	      0.08541500	     -0.18658600	      0.17195100	      0.06752500	     -0.36870700	      0.48897400	      0.09333500	     -0.25808800	      0.19606800	      0.07698100	     -0.30650900	      0.26148400	      1.37693000	     -0.31433100	      0.38386700	      1.31029600	     -0.26212900	      0.38499500	      1.30594100	     -0.36783300	      0.38024600	      1.30534500	     -0.31446000	      0.41774700	      1.23396000	     -0.31486300	      0.55009100	      0.64923700	     -0.25436500	      0.31300600	      0.54797200	     -0.51572900	      0.47337500	      0.66652000	     -0.19223000	      0.25526700	      0.60508200	     -0.46498600	      0.50265600	      0.58239300	     -0.19312000	      0.25690000	      0.51870600	     -0.44441600	      0.45835700	      0.16649300	     -0.11677500	      0.29898900	      0.17774300	     -0.33412700	      0.45962000	      0.17315900	     -0.15970500	      0.25750100	      0.18346900	     -0.34331000	      0.57532100	      0.06397000	     -0.19656400	      0.28946100	      0.04268400	     -0.36398500	      0.00000000	      0.00000000	      0.00000000	      0.60528101	      0.00000000	     -0.23164548	      6.04379705	    601.30603400	     22.15613113	      0.28848724	      0.00000000	     -0.35317590	      0.00000000	      0.00000000	      0.00000000	      0.00000000	     -2.00435730	      0.00000000	      0.30917400	      0.82250071	     -0.31783798	      0.29710048	      0.79991227	     -0.24258983	      0.28715068	      0.80235273	     -0.39437208	      0.47332641	      0.45718423	     -0.22725339	      0.25117928	      0.42820233	     -0.36622861	      0.47949135	      0.08533711	     -0.22432257	      0.18500261	      0.06883474	     -0.33091938	      0.38119203	      0.87670624	     -0.32005727	      0.38504973	      0.87462586	     -0.20183021	      0.37733436	      0.87878668	     -0.43828437	      0.18646812	      0.93170327	     -0.27581999	      0.18145169	      0.92964697	     -0.33135492	      0.47787076	      0.46209890	     -0.16964094	      0.25969693	      0.42308521	     -0.42337111	      0.46993992	      0.45512041	     -0.28607324	      0.26653162	      0.44424319	     -0.30114082	      0.46622723	      0.08541463	     -0.18658589	      0.17195067	      0.06752541	     -0.36870736	      0.48897445	      0.09333525	     -0.25808787	      0.19606780	      0.07698116	     -0.30650899	      0.26148382	      1.37693048	     -0.31433061	      0.38386706	      1.31029582	     -0.26212922	      0.38499489	      1.30594134	     -0.36783272	      0.38024646	      1.30534458	     -0.31446022	      0.41774738	      1.23395979	     -0.31486347	      0.55009109	      0.64923668	     -0.25436497	      0.31300628	      0.54797220	     -0.51572949	      0.47337490	      0.66651958	     -0.19222961	      0.25526729	      0.60508162	     -0.46498564	      0.50265574	      0.58239299	     -0.19312006	      0.25689983	      0.51870626	     -0.44441614	      0.45835671	      0.16649280	     -0.11677513	      0.29898876	      0.17774275	     -0.33412671	      0.45962024	      0.17315915	     -0.15970466	      0.25750083	      0.18346904	     -0.34331030	      0.57532078	      0.06397038	     -0.19656412	      0.28946111	      0.04268450	     -0.36398470
      0.64167000	      0.37502001	      0.86715989	     -0.32184957	     -3.72810429	      0.81837982	      2.31495839	     30.20058819	     -3.26213546	      5.09218700	    -23.71865016	      0.56620893	     -2.68439708	      5.48563814	     10.87433758	     -4.76780439	      9.59821840	     -3.68616355	     -0.21059356	     -2.32885242	      0.00000000	      0.00000000	      0.00000000	      0.00000000	      0.42737332	      0.85205815	     -0.21326966	      0.41649018	      0.85946814	     -0.44813789	      0.38784742	      0.86633150	     -0.32236915	      0.23510999	      0.93592826	     -0.28652732	      0.22923451	      0.93382745	     -0.34087763	      0.30931410	      0.80944435	     -0.24343532	      0.30327110	      0.81203278	     -0.39675110	      0.30629260	      0.81073856	     -0.32009321	      0.50910023	      0.47260916	     -0.17564788	      0.49880644	      0.46356289	     -0.29191188	      0.58247420	      0.65855651	     -0.27052276	      0.50432845	      0.68029191	     -0.21263143	      0.53115330	      0.59666527	     -0.20673338	      0.48418708	      0.08678523	     -0.15883451	      0.51159149	      0.08637204	     -0.22907055	      0.47468825	      0.16938083	     -0.09791995	      0.47821591	      0.17516355	     -0.14169782	      0.47880546	      0.46969202	     -0.23419621	      0.49793247	      0.09803415	     -0.20846340	      0.59912596	      0.06229395	     -0.14713006	      0.29849663	      0.41051348	     -0.42888807	      0.28158698	      0.43189946	     -0.30802380	      0.35650216	      0.52898395	     -0.51781957	      0.29481438	      0.59102626	     -0.47301638	      0.29051618	      0.50545833	     -0.45200608	      0.17704411	      0.05481311	     -0.38958138	      0.18949663	      0.06666612	     -0.32103080	      0.30100536	      0.15795826	     -0.33671588	      0.26132131	      0.16392045	     -0.34990066	      0.25898525	      0.43790677	     -0.36586186	      0.18854487	      0.07252831	     -0.33951182	      0.29358860	      0.02384991	     -0.36584003	      0.39010691	      1.31934681	     -0.26145601	      0.39226480	      1.31598093	     -0.36728255	      0.26212279	      1.36168392	     -0.31393611	      0.38812092	      1.31395790	     -0.31377852	      0.43733823	      1.25074286	     -0.31459846	      0.31540700	      0.82390500	     -0.31788800	      0.30137600	      0.79925000	     -0.24232800	      0.29136500	      0.80179200	     -0.39410400	      0.47668300	      0.45603300	     -0.22816500	      0.25350600	      0.42793900	     -0.36593400	      0.49676100	      0.08410800	     -0.22362700	      0.18507800	      0.06894300	     -0.33072500	      0.38554900	      0.87596300	     -0.31978800	      0.38945400	      0.87380900	     -0.20159200	      0.38164400	      0.87811600	     -0.43798300	      0.19121500	      0.93114100	     -0.27508400	      0.18604300	      0.92916200	     -0.33069100	      0.48151800	      0.46087900	     -0.17057100	      0.26199900	      0.42277300	     -0.42307600	      0.47203100	      0.45254700	     -0.28592700	      0.26663900	      0.44299100	     -0.30200100	      0.48353300	      0.08385400	     -0.18587900	      0.17199800	      0.06773100	     -0.36850700	      0.50639700	      0.09258400	     -0.25717600	      0.19641500	      0.07706000	     -0.30639500	      0.26639100	      1.37630400	     -0.31366800	      0.38848600	      1.30998900	     -0.26130900	      0.38941800	      1.30584900	     -0.36781700	      0.38518200	      1.30464200	     -0.31412700	      0.42236200	      1.23380300	     -0.31468200	      0.55351600	      0.64692800	     -0.25533000	      0.31593100	      0.54753200	     -0.51538300	      0.47724600	      0.66433600	     -0.19316100	      0.25822100	      0.60468400	     -0.46460100	      0.50581800	      0.58007200	     -0.19364500	      0.25890400	      0.51908100	     -0.44489100	      0.47265100	      0.16499200	     -0.11620000	      0.29975900	      0.17706200	     -0.33394200	      0.47383300	      0.17179100	     -0.15907800	      0.25837800	      0.18297400	     -0.34301800	      0.59345000	      0.06599900	     -0.19659400	      0.28948200	      0.04267300	     -0.36384400	      0.00000000	      0.00000000	      0.00000000	      0.60598627	      0.00000000	     -0.23110918	      7.03394268	    603.07474888	     22.75557594	      0.29054120	      0.00000000	     -0.35351117	      0.00000000	      0.00000000	      0.00000000	      0.00000000	     -2.03631824	      0.00000000	      0.31540650	      0.82390499	     -0.31788817	      0.30137646	      0.79924983	     -0.24232784	      0.29136461	      0.80179220	     -0.39410433	      0.47668278	      0.45603293	     -0.22816540	      0.25350627	      0.42793906	     -0.36593410	      0.49676061	      0.08410799	     -0.22362724	      0.18507811	      0.06894308	     -0.33072549	      0.38554904	      0.87596262	     -0.31978777	      0.38945386	      0.87380916	     -0.20159228	      0.38164422	      0.87811601	     -0.43798324	      0.19121477	      0.93114138	     -0.27508417	      0.18604264	      0.92916203	     -0.33069101	      0.48151761	      0.46087903	     -0.17057079	      0.26199880	      0.42277333	     -0.42307597	      0.47203070	      0.45254686	     -0.28592721	      0.26663923	      0.44299105	     -0.30200082	      0.48353255	      0.08385448	     -0.18587866	      0.17199835	      0.06773078	     -0.36850709	      0.50639725	      0.09258406	     -0.25717580	      0.19641538	      0.07705995	     -0.30639508	      0.26639062	      1.37630439	     -0.31366777	      0.38848633	      1.30998909	     -0.26130861	      0.38941756	      1.30584872	     -0.36781672	      0.38518244	      1.30464208	     -0.31412733	      0.42236248	      1.23380256	     -0.31468198	      0.55351621	      0.64692819	     -0.25532985	      0.31593150	      0.54753184	     -0.51538312	      0.47724584	      0.66433609	     -0.19316123	      0.25822079	      0.60468405	     -0.46460092	      0.50581825	      0.58007228	     -0.19364482	      0.25890386	      0.51908135	     -0.44489110	      0.47265083	      0.16499239	     -0.11619973	      0.29975909	      0.17706184	     -0.33394176	      0.47383276	      0.17179054	     -0.15907800	      0.25837764	      0.18297447	     -0.34301808	      0.59345025	      0.06599938	     -0.19659421	      0.28948227	      0.04267259	     -0.36384413
